<?xml version="1.0" standalone="no"?>
<!DOCTYPE svg PUBLIC "-//W3C//DTD SVG 20010904//EN"
 "http://www.w3.org/TR/2001/REC-SVG-20010904/DTD/svg10.dtd">
<svg version="1.0" xmlns="http://www.w3.org/2000/svg"
 width="96.000000pt" height="96.000000pt" viewBox="0 0 96.000000 96.000000"
 preserveAspectRatio="xMidYMid meet">

<g transform="translate(0.000000,96.000000) scale(0.100000,-0.100000)"
fill="#000000" stroke="none">
<path d="M0 480 l0 -480 480 0 480 0 0 480 0 480 -480 0 -480 0 0 -480z m950
0 l0 -470 -470 0 -470 0 0 470 0 470 470 0 470 0 0 -470z"/>
<path d="M50 475 l0 -175 100 0 100 0 0 25 c0 20 5 25 25 25 l25 0 0 125 0
125 -25 0 c-20 0 -25 5 -25 25 l0 25 -100 0 -100 0 0 -175z m200 0 l0 -125
-75 0 -75 0 0 125 0 125 75 0 75 0 0 -125z"/>
<path d="M350 475 l0 -175 25 0 25 0 0 100 0 100 75 0 75 0 0 -100 0 -100 25
0 25 0 0 175 0 175 -25 0 c-23 0 -25 -3 -25 -50 l0 -50 -75 0 -75 0 0 50 c0
47 -2 50 -25 50 l-25 0 0 -175z"/>
<path d="M650 475 l0 -175 25 0 25 0 0 100 0 100 75 0 75 0 0 -100 0 -100 25
0 25 0 0 100 0 100 -25 0 c-20 0 -25 5 -25 25 0 20 5 25 25 25 20 0 25 5 25
25 0 20 -5 25 -25 25 -20 0 -25 5 -25 25 l0 25 -100 0 -100 0 0 -175z m200
100 c0 -24 -2 -25 -75 -25 -73 0 -75 1 -75 25 0 24 2 25 75 25 73 0 75 -1 75
-25z"/>
</g>
</svg>
